<svg width="20" height="20" viewBox="0 0 20 20" fill="none" xmlns="http://www.w3.org/2000/svg">
<path d="M17.5 14.333C17.5 16.5421 15.7091 18.333 13.5 18.333H6.5C4.29086 18.333 2.5 16.5421 2.5 14.333V8.125H17.5V14.333ZM13.333 1.04199C13.6782 1.04199 13.958 1.32181 13.958 1.66699V2.94336C15.9378 3.16904 17.4782 4.83959 17.499 6.875H2.50098C2.52175 4.83959 4.06217 3.16904 6.04199 2.94336V1.66699C6.04199 1.32181 6.32181 1.04199 6.66699 1.04199C7.01202 1.04217 7.29199 1.32192 7.29199 1.66699V2.91699H12.708V1.66699C12.708 1.32192 12.988 1.04217 13.333 1.04199Z" fill="#FE4E4D"/>
</svg>
