<svg width="20" height="20" viewBox="0 0 20 20" fill="none" xmlns="http://www.w3.org/2000/svg">
<path d="M10.8334 2.5H9.16675C5.02461 2.5 1.66675 5.85786 1.66675 10V14.1667C1.66675 16.0076 3.15913 17.5 5.00008 17.5H10.8334C14.9756 17.5 18.3334 14.1421 18.3334 10C18.3334 5.85786 14.9756 2.5 10.8334 2.5Z" fill="#7B7B7B"/>
<path fill-rule="evenodd" clip-rule="evenodd" d="M6.04175 11.667C6.04175 12.0122 6.32157 12.292 6.66675 12.292H10.0001C10.3453 12.292 10.6251 12.0122 10.6251 11.667C10.6251 11.3218 10.3453 11.042 10.0001 11.042H6.66675C6.32157 11.042 6.04175 11.3218 6.04175 11.667ZM6.04175 8.33366C6.04175 8.67884 6.32157 8.95866 6.66675 8.95866H13.3334C13.6786 8.95866 13.9584 8.67884 13.9584 8.33366C13.9584 7.98848 13.6786 7.70866 13.3334 7.70866H6.66675C6.32157 7.70866 6.04175 7.98848 6.04175 8.33366Z" fill="#1F1F1F"/>
</svg>
