<svg width="24" height="24" viewBox="0 0 24 24" fill="none" xmlns="http://www.w3.org/2000/svg">
<path d="M12.0001 5C15.8156 5.00007 19.1742 7.79577 21.13 9.85352C22.2895 11.0736 22.2895 12.9264 21.13 14.1465C19.1742 16.2042 15.8156 18.9999 12.0001 19C8.18461 19 4.82505 16.2043 2.86926 14.1465C1.71021 12.9266 1.71021 11.0734 2.86926 9.85352C4.82505 7.79575 8.18461 5 12.0001 5ZM12.0001 9C10.3433 9 9.00012 10.3431 9.00012 12C9.00012 13.6569 10.3433 15 12.0001 15C13.6569 14.9999 15.0001 13.6568 15.0001 12C15.0001 10.3432 13.6569 9.00007 12.0001 9Z" fill="white"/>
</svg>
