<svg width="40" height="40" viewBox="0 0 40 40" fill="none" xmlns="http://www.w3.org/2000/svg">
<path opacity="0.4" d="M5 29.9997L5 9.99968C5 6.31778 7.98477 3.33301 11.6667 3.33301L21.6667 3.33301C26.11 7.77633 30.5457 12.2274 35 16.6597C35 21.1064 35 25.553 35 29.9997C35 33.6816 32.0152 36.6663 28.3333 36.6663H11.6667C7.98477 36.6663 5 33.6816 5 29.9997Z" fill="white"/>
<path d="M21.6665 9.99967L21.6665 3.33301L34.9998 16.6663L28.3332 16.6663C24.6513 16.6663 21.6665 13.6816 21.6665 9.99967Z" fill="white"/>
<path d="M9.8374 22.7197H12.479C13.0747 22.7197 13.5288 22.7653 13.8413 22.8564C14.2612 22.9801 14.6209 23.1999 14.9204 23.5156C15.2199 23.8314 15.4478 24.2188 15.604 24.6777C15.7603 25.1335 15.8384 25.6966 15.8384 26.3672C15.8384 26.9564 15.7651 27.4642 15.6187 27.8906C15.4396 28.4115 15.1841 28.833 14.8521 29.1553C14.6014 29.3994 14.2629 29.5898 13.8364 29.7266C13.5174 29.8275 13.091 29.8779 12.5571 29.8779H9.8374V22.7197ZM11.2827 23.9307V28.6719H12.3618C12.7655 28.6719 13.0568 28.6491 13.2358 28.6035C13.4702 28.5449 13.6639 28.4456 13.8169 28.3057C13.9731 28.1657 14.1001 27.9362 14.1978 27.6172C14.2954 27.2949 14.3442 26.8571 14.3442 26.3037C14.3442 25.7503 14.2954 25.3255 14.1978 25.0293C14.1001 24.7331 13.9634 24.502 13.7876 24.3359C13.6118 24.1699 13.3888 24.0576 13.1187 23.999C12.9168 23.9535 12.5213 23.9307 11.9321 23.9307H11.2827Z" fill="white"/>
<path d="M16.7759 26.3428C16.7759 25.6136 16.8849 25.0016 17.103 24.5068C17.2658 24.1423 17.4871 23.8151 17.7671 23.5254C18.0503 23.2357 18.3595 23.0208 18.6948 22.8809C19.1408 22.6921 19.6551 22.5977 20.2378 22.5977C21.2925 22.5977 22.1356 22.9248 22.7671 23.5791C23.4019 24.2334 23.7192 25.1432 23.7192 26.3086C23.7192 27.4642 23.4051 28.3691 22.7769 29.0234C22.1486 29.6745 21.3088 30 20.2573 30C19.1929 30 18.3465 29.6761 17.7183 29.0283C17.09 28.3773 16.7759 27.4821 16.7759 26.3428ZM18.2651 26.2939C18.2651 27.1045 18.4523 27.7197 18.8267 28.1396C19.201 28.5563 19.6763 28.7646 20.2524 28.7646C20.8286 28.7646 21.3006 28.5579 21.6685 28.1445C22.0396 27.7279 22.2251 27.1045 22.2251 26.2744C22.2251 25.4541 22.0444 24.8421 21.6831 24.4385C21.325 24.0348 20.8481 23.833 20.2524 23.833C19.6567 23.833 19.1766 24.0381 18.812 24.4482C18.4474 24.8551 18.2651 25.4704 18.2651 26.2939Z" fill="white"/>
<path d="M29.4321 27.2461L30.8335 27.6904C30.6187 28.4717 30.2606 29.0527 29.7593 29.4336C29.2612 29.8112 28.6281 30 27.8599 30C26.9093 30 26.1281 29.6761 25.5161 29.0283C24.9041 28.3773 24.5981 27.4886 24.5981 26.3623C24.5981 25.1709 24.9058 24.2464 25.521 23.5889C26.1362 22.9281 26.9451 22.5977 27.9478 22.5977C28.8234 22.5977 29.5347 22.8564 30.0815 23.374C30.4071 23.68 30.6512 24.1195 30.814 24.6924L29.3833 25.0342C29.2987 24.6631 29.1213 24.3701 28.8511 24.1553C28.5841 23.9404 28.2586 23.833 27.8745 23.833C27.3439 23.833 26.9126 24.0234 26.5806 24.4043C26.2518 24.7852 26.0874 25.402 26.0874 26.2549C26.0874 27.1598 26.2502 27.8044 26.5757 28.1885C26.9012 28.5726 27.3244 28.7646 27.8452 28.7646C28.2293 28.7646 28.5597 28.6426 28.8364 28.3984C29.1131 28.1543 29.3117 27.7702 29.4321 27.2461Z" fill="white"/>
</svg>
