<svg width="20" height="20" viewBox="0 0 20 20" fill="none" xmlns="http://www.w3.org/2000/svg">
<path fill-rule="evenodd" clip-rule="evenodd" d="M8.19946 4.2191C7.89994 4.97401 7.65616 5.89099 7.49144 6.92045C8.28843 6.84745 9.13049 6.80859 9.99937 6.80859C10.8682 6.80859 11.7103 6.84745 12.5073 6.92045C12.3426 5.89099 12.0988 4.97401 11.7993 4.2191C11.5114 3.49351 11.1844 2.94916 10.8538 2.59665C10.5244 2.24549 10.2354 2.12754 9.99937 2.12754C9.76332 2.12754 9.47439 2.24549 9.14498 2.59665C8.8143 2.94916 8.48735 3.49351 8.19946 4.2191ZM7.02372 3.74496C6.65 4.6869 6.36323 5.82157 6.18748 7.07597C5.32231 7.2046 4.53277 7.37624 3.84799 7.58335C3.05121 7.82434 2.36029 8.12397 1.85442 8.4857C1.79051 8.5314 1.72743 8.5797 1.66605 8.63062C2.22443 5.15104 4.8753 2.37832 8.2751 1.66699C8.25823 1.68429 8.24151 1.70178 8.22493 1.71946C7.74761 2.22831 7.34692 2.93036 7.02372 3.74496ZM11.7236 1.66699C11.7405 1.68429 11.7572 1.70178 11.7738 1.71946C12.2511 2.22831 12.6518 2.93036 12.975 3.74496C13.3487 4.6869 13.6355 5.82157 13.8113 7.07597C14.6764 7.2046 15.466 7.37624 16.1507 7.58335C16.9475 7.82434 17.6384 8.12397 18.1443 8.4857C18.2082 8.5314 18.2713 8.5797 18.3327 8.63062C17.7743 5.15104 15.1234 2.37832 11.7236 1.66699ZM18.3327 11.3698C18.2713 11.4207 18.2082 11.469 18.1443 11.5147C17.6384 11.8765 16.9475 12.1761 16.1507 12.4171C15.466 12.6242 14.6764 12.7958 13.8113 12.9245C13.6355 14.1788 13.3487 15.3135 12.975 16.2555C12.6518 17.0701 12.2511 17.7721 11.7738 18.281C11.7571 18.2987 11.7403 18.3163 11.7234 18.3337C15.1234 17.6224 17.7744 14.8495 18.3327 11.3698ZM8.27535 18.3337C8.2584 18.3163 8.24159 18.2987 8.22493 18.281C7.74761 17.7721 7.34692 17.0701 7.02372 16.2555C6.65 15.3135 6.36323 14.1788 6.18748 12.9245C5.32231 12.7958 4.53277 12.6242 3.84799 12.4171C3.05121 12.1761 2.36029 11.8765 1.85442 11.5147C1.7905 11.469 1.72741 11.4207 1.66602 11.3698C2.22432 14.8495 4.87535 17.6224 8.27535 18.3337ZM4.21186 11.1943C4.74893 11.3567 5.36687 11.4975 6.04795 11.6105C6.0094 11.087 5.98939 10.5488 5.98939 10.0002C5.98939 9.45166 6.0094 8.91341 6.04795 8.38992C5.36687 8.50292 4.74893 8.64372 4.21186 8.80616C3.48093 9.02723 2.93554 9.27779 2.58702 9.52701C2.22206 9.78798 2.19046 9.95714 2.19046 10.0002C2.19046 10.0433 2.22206 10.2124 2.58702 10.4734C2.93554 10.7226 3.48093 10.9732 4.21186 11.1943ZM7.2557 10.0002C7.2557 10.614 7.28224 11.2102 7.33216 11.7819C8.16459 11.8679 9.06173 11.9152 9.99937 11.9152C10.937 11.9152 11.8341 11.8679 12.6666 11.7819C12.7165 11.2102 12.743 10.614 12.743 10.0002C12.743 9.38639 12.7165 8.79025 12.6666 8.21855C11.8341 8.13249 10.937 8.08524 9.99937 8.08524C9.06173 8.08524 8.16459 8.13249 7.33216 8.21855C7.28224 8.79025 7.2557 9.38639 7.2557 10.0002ZM8.19946 15.7813C7.89994 15.0264 7.65616 14.1094 7.49144 13.08C8.28843 13.153 9.13049 13.1918 9.99937 13.1918C10.8682 13.1918 11.7103 13.153 12.5073 13.08C12.3426 14.1094 12.0988 15.0264 11.7993 15.7813C11.5114 16.5069 11.1844 17.0513 10.8538 17.4038C10.5244 17.7549 10.2354 17.8729 9.99937 17.8729C9.76332 17.8729 9.47439 17.7549 9.14498 17.4038C8.8143 17.0513 8.48735 16.5069 8.19946 15.7813ZM15.7869 11.1943C15.2498 11.3567 14.6319 11.4975 13.9508 11.6105C13.9893 11.087 14.0093 10.5488 14.0093 10.0002C14.0093 9.45166 13.9893 8.91341 13.9508 8.38993C14.6319 8.50292 15.2498 8.64372 15.7869 8.80616C16.5178 9.02723 17.0632 9.27779 17.4117 9.52701C17.7767 9.78799 17.8083 9.95714 17.8083 10.0002C17.8083 10.0433 17.7767 10.2124 17.4117 10.4734C17.0632 10.7226 16.5178 10.9732 15.7869 11.1943Z" fill="white"/>
</svg>
