<svg width="24" height="24" viewBox="0 0 24 24" fill="none" xmlns="http://www.w3.org/2000/svg">
<path d="M16.3529 2C19.7298 2 21.9993 4.36186 21.9994 7.8877V16.1016C21.9994 16.2526 21.9722 16.3882 21.9642 16.5342C21.9592 16.6191 21.9605 16.7041 21.9535 16.7891C21.9495 16.827 21.938 16.8624 21.934 16.9004C21.901 17.2141 21.8506 17.5139 21.7797 17.8047C21.7617 17.8827 21.7401 17.9582 21.7191 18.0342C21.6391 18.3161 21.545 18.5849 21.432 18.8418C21.399 18.9137 21.3634 18.9828 21.3295 19.0537C21.2075 19.2987 21.0752 19.534 20.9222 19.752C20.8752 19.8189 20.8238 19.8793 20.7748 19.9443C20.6158 20.1503 20.4491 20.3474 20.2611 20.5264C20.2002 20.5842 20.1316 20.6346 20.0677 20.6895C19.8748 20.8554 19.6773 21.0144 19.4603 21.1504C19.3824 21.1993 19.2961 21.2353 19.2162 21.2793C18.9953 21.4012 18.7725 21.5204 18.5297 21.6123C18.4297 21.6503 18.3182 21.6701 18.2142 21.7031C17.9754 21.7771 17.7396 21.8544 17.4828 21.8984C17.2888 21.9324 17.0774 21.9361 16.8734 21.9531C16.6994 21.9661 16.5339 22 16.3529 22H7.63708C7.2612 22 6.90196 21.9623 6.55505 21.9053C6.54216 21.9033 6.52986 21.9014 6.51794 21.8994C5.16516 21.6664 4.04217 21.0132 3.25525 20.0283C3.2464 20.0282 3.24659 20.0177 3.23767 20.0088C2.44667 19.0128 1.99939 17.6736 1.99939 16.1016V7.8877C1.99952 4.36197 4.27035 2.00014 7.63708 2H16.3529ZM7.63708 3.39453C5.06035 3.39467 3.396 5.16198 3.39587 7.8877V16.1016C3.39587 16.8665 3.5377 17.5497 3.78064 18.1406C3.82143 18.0917 5.7293 15.7655 5.7572 15.7344C6.44919 14.9444 7.74853 13.7656 9.45349 14.4785C9.86334 14.6485 10.2232 14.8877 10.5531 15.0977C11.1261 15.4807 11.4638 15.6609 11.8138 15.6309C11.9585 15.6109 12.0943 15.568 12.223 15.4883C12.781 15.1443 14.3585 12.8438 14.4535 12.7188C15.5435 11.2989 17.2235 10.9189 18.6234 11.7588C18.8114 11.8708 20.1589 12.8124 20.6049 13.1904V7.8877C20.6047 5.16187 18.9388 3.39453 16.3529 3.39453H7.63708ZM8.47888 6C9.17647 6.00006 9.80863 6.29273 10.2611 6.76074C10.7155 7.21239 11.0004 7.83529 11.0004 8.51465C11.0003 9.86942 9.86647 10.9998 8.50525 11C7.30854 11 6.28764 10.1252 6.05896 8.99316C6.02118 8.82334 6.00037 8.64821 6.00037 8.46777C6.00062 7.10338 7.10888 6 8.47888 6Z" fill="#040404"/>
</svg>
