<svg width="20" height="20" viewBox="0 0 20 20" fill="none" xmlns="http://www.w3.org/2000/svg">
<path d="M9.99902 1.875C12.185 1.875 13.9569 3.64703 13.957 5.83301V6.04688C15.5324 6.58407 16.6659 8.07595 16.666 9.83301V13.5C16.666 15.709 14.875 17.4998 12.666 17.5H7.33203C5.12304 17.4998 3.33203 15.709 3.33203 13.5V9.83301C3.33217 8.07595 4.46565 6.58407 6.04102 6.04688V5.83301C6.04119 3.64703 7.813 1.875 9.99902 1.875ZM9.99902 10C9.07855 10 8.33203 10.7465 8.33203 11.667C8.33221 12.5873 9.07866 13.333 9.99902 13.333C10.9194 13.333 11.6658 12.5873 11.666 11.667C11.666 10.7465 10.9195 10 9.99902 10ZM9.99902 3.125C8.59666 3.125 7.44328 4.19084 7.30469 5.55664L7.29102 5.83301H12.707C12.7069 4.33739 11.4947 3.125 9.99902 3.125Z" fill="white"/>
</svg>
