<svg width="32" height="32" viewBox="0 0 32 32" fill="none" xmlns="http://www.w3.org/2000/svg">
<path d="M26.6666 6.66666C26.6666 8.8758 24.8758 10.6667 22.6666 10.6667C20.4575 10.6667 18.6666 8.8758 18.6666 6.66666C18.6666 4.45752 20.4575 2.66666 22.6666 2.66666C24.8758 2.66666 26.6666 4.45752 26.6666 6.66666Z" fill="#FE4E4D"/>
<path fill-rule="evenodd" clip-rule="evenodd" d="M24.4316 13.0972C23.8694 13.2512 23.2777 13.3333 22.6667 13.3333C18.9848 13.3333 16 10.3486 16 6.66668C16 6.21043 16.0459 5.76489 16.1332 5.3344C16.0889 5.3337 16.0445 5.33334 16 5.33334C11.6946 5.33334 8.0718 8.65448 7.57289 13.0587L7.11305 17.118C6.99879 18.1267 6.58999 19.0758 5.9407 19.8401C4.56282 21.4619 5.68112 24 7.77355 24H24.2265C26.319 24 27.4373 21.4619 26.0594 19.8401C25.4101 19.0758 25.0013 18.1267 24.887 17.118L24.4316 13.0972Z" fill="white"/>
<path d="M16 29.3333C17.8087 29.3333 19.353 28.2656 19.9628 26.762C19.9882 26.6993 20 26.632 20 26.5644C20 26.2527 19.7473 26 19.4356 26H12.5644C12.2527 26 12 26.2527 12 26.5644C12 26.632 12.0118 26.6993 12.0372 26.762C12.647 28.2656 14.1913 29.3333 16 29.3333Z" fill="white"/>
</svg>
