<svg width="20" height="20" viewBox="0 0 20 20" fill="none" xmlns="http://www.w3.org/2000/svg">
<mask id="mask0_201_14787" style="mask-type:luminance" maskUnits="userSpaceOnUse" x="1" y="1" width="17" height="17">
<path fill-rule="evenodd" clip-rule="evenodd" d="M1.66663 1.66666H17.8973V17.8975H1.66663V1.66666Z" fill="white"/>
</mask>
<g mask="url(#mask0_201_14787)">
<path fill-rule="evenodd" clip-rule="evenodd" d="M9.78234 2.91666C5.9965 2.91666 2.9165 5.99582 2.9165 9.78166C2.9165 13.5675 5.9965 16.6475 9.78234 16.6475C13.5673 16.6475 16.6473 13.5675 16.6473 9.78166C16.6473 5.99582 13.5673 2.91666 9.78234 2.91666M9.78234 17.8975C5.30734 17.8975 1.6665 14.2567 1.6665 9.78166C1.6665 5.30666 5.30734 1.66666 9.78234 1.66666C14.2573 1.66666 17.8973 5.30666 17.8973 9.78166C17.8973 14.2567 14.2573 17.8975 9.78234 17.8975" fill="#7B7B7B"/>
</g>
<mask id="mask1_201_14787" style="mask-type:luminance" maskUnits="userSpaceOnUse" x="14" y="14" width="5" height="5">
<path fill-rule="evenodd" clip-rule="evenodd" d="M14.3667 14.7558H18.5534V18.9348H14.3667V14.7558Z" fill="white"/>
</mask>
<g mask="url(#mask1_201_14787)">
<path fill-rule="evenodd" clip-rule="evenodd" d="M17.9286 18.9348C17.7694 18.9348 17.6094 18.8739 17.4869 18.7523L14.5502 15.8239C14.3061 15.5798 14.3052 15.1839 14.5494 14.9398C14.7927 14.6939 15.1886 14.6956 15.4336 14.9381L18.3702 17.8673C18.6144 18.1114 18.6152 18.5064 18.3711 18.7506C18.2494 18.8739 18.0886 18.9348 17.9286 18.9348" fill="#7B7B7B"/>
</g>
</svg>
