<svg width="20" height="20" viewBox="0 0 20 20" fill="none" xmlns="http://www.w3.org/2000/svg">
<path d="M10 14.375C10.3452 14.375 10.625 14.6548 10.625 15C10.625 15.3452 10.3452 15.625 10 15.625H5C4.65482 15.625 4.375 15.3452 4.375 15C4.375 14.6548 4.65482 14.375 5 14.375H10ZM15 11.042C15.3452 11.042 15.625 11.3218 15.625 11.667C15.6248 12.012 15.3451 12.292 15 12.292H5C4.65493 12.292 4.37518 12.012 4.375 11.667C4.375 11.3218 4.65482 11.042 5 11.042H15ZM15 7.70801C15.3451 7.70801 15.6248 7.98798 15.625 8.33301C15.625 8.67819 15.3452 8.95801 15 8.95801H5C4.65482 8.95801 4.375 8.67819 4.375 8.33301C4.37518 7.98798 4.65493 7.70801 5 7.70801H15ZM15 4.375C15.3452 4.375 15.625 4.65482 15.625 5C15.625 5.34518 15.3452 5.625 15 5.625H5C4.65482 5.625 4.375 5.34518 4.375 5C4.375 4.65482 4.65482 4.375 5 4.375H15Z" fill="#7B7B7B"/>
</svg>
