<svg width="24" height="24" viewBox="0 0 24 24" fill="none" xmlns="http://www.w3.org/2000/svg">
<path d="M6 13C6.62938 13 7.22189 13.2964 7.59961 13.7998L8.7998 15.4004C9.55523 16.4075 10.741 17 12 17C13.259 17 14.4448 16.4075 15.2002 15.4004L16.4004 13.7998C16.7781 13.2964 17.3706 13 18 13H19C20.6569 13 22 14.3431 22 16V19C22 20.6569 20.6569 22 19 22H5C3.34315 22 2 20.6569 2 19V16C2 14.3431 3.34315 13 5 13H6ZM16 2C18.2091 2 20 3.79086 20 6V11.6123C19.6783 11.5393 19.3438 11.5 19 11.5H18C16.8983 11.5 15.8612 12.0191 15.2002 12.9004L14 14.5C13.5279 15.1295 12.7869 15.5 12 15.5C11.2131 15.5 10.4721 15.1295 10 14.5L8.7998 12.9004C8.13881 12.0191 7.10165 11.5 6 11.5H5C4.65624 11.5 4.32166 11.5393 4 11.6123V6C4 3.79086 5.79086 2 8 2H16ZM13.9443 5.88379C12.8704 4.81001 11.1296 4.81001 10.0557 5.88379L8.46973 7.46973C8.17686 7.76262 8.17684 8.23739 8.46973 8.53027C8.76261 8.82313 9.23739 8.82313 9.53027 8.53027L11.1162 6.94434C11.1586 6.90192 11.2034 6.86317 11.25 6.82812V11C11.25 11.4142 11.5858 11.75 12 11.75C12.4142 11.75 12.75 11.4142 12.75 11V6.82812C12.7966 6.86317 12.8414 6.90192 12.8838 6.94434L14.4697 8.53027C14.7626 8.82313 15.2374 8.82313 15.5303 8.53027C15.8232 8.23739 15.8231 7.76262 15.5303 7.46973L13.9443 5.88379Z" fill="#7B7B7B"/>
</svg>
